<mxfile host="app.diagrams.net" modified="2022-11-20T09:28:46.572Z" agent="5.0 (Windows NT 10.0; Win64; x64) AppleWebKit/537.36 (KHTML, like Gecko) Chrome/107.0.0.0 Safari/537.36" etag="q_hyHWjvtDzp671jyS7i" version="20.5.3" type="github">
  <diagram id="HCEbEbxwXHf0zrKpRgwD" name="Page-1">
    <mxGraphModel dx="1422" dy="794" grid="1" gridSize="10" guides="1" tooltips="1" connect="1" arrows="1" fold="1" page="1" pageScale="1" pageWidth="850" pageHeight="1100" math="0" shadow="0">
      <root>
        <mxCell id="0" />
        <mxCell id="1" parent="0" />
        <mxCell id="-bVrx1bl4J-N6o7YZNYy-3" style="edgeStyle=orthogonalEdgeStyle;rounded=0;orthogonalLoop=1;jettySize=auto;html=1;entryX=0.5;entryY=0;entryDx=0;entryDy=0;" edge="1" parent="1" source="-bVrx1bl4J-N6o7YZNYy-1" target="-bVrx1bl4J-N6o7YZNYy-4">
          <mxGeometry relative="1" as="geometry">
            <mxPoint x="230" y="230" as="targetPoint" />
          </mxGeometry>
        </mxCell>
        <mxCell id="-bVrx1bl4J-N6o7YZNYy-1" value="&lt;font style=&quot;font-size: 18px;&quot;&gt;شروع&lt;/font&gt;" style="ellipse;whiteSpace=wrap;html=1;aspect=fixed;" vertex="1" parent="1">
          <mxGeometry x="185" y="10" width="80" height="80" as="geometry" />
        </mxCell>
        <mxCell id="-bVrx1bl4J-N6o7YZNYy-61" style="edgeStyle=orthogonalEdgeStyle;rounded=0;orthogonalLoop=1;jettySize=auto;html=1;entryX=0.5;entryY=0;entryDx=0;entryDy=0;fontSize=18;" edge="1" parent="1" source="-bVrx1bl4J-N6o7YZNYy-4" target="-bVrx1bl4J-N6o7YZNYy-5">
          <mxGeometry relative="1" as="geometry" />
        </mxCell>
        <mxCell id="-bVrx1bl4J-N6o7YZNYy-4" value="درخواست کننده" style="rounded=1;whiteSpace=wrap;html=1;fontSize=18;arcSize=30;" vertex="1" parent="1">
          <mxGeometry x="165" y="110" width="120" height="60" as="geometry" />
        </mxCell>
        <mxCell id="-bVrx1bl4J-N6o7YZNYy-62" style="edgeStyle=orthogonalEdgeStyle;rounded=0;orthogonalLoop=1;jettySize=auto;html=1;entryX=0.5;entryY=0;entryDx=0;entryDy=0;fontSize=18;" edge="1" parent="1" source="-bVrx1bl4J-N6o7YZNYy-5" target="-bVrx1bl4J-N6o7YZNYy-32">
          <mxGeometry relative="1" as="geometry">
            <Array as="points">
              <mxPoint x="250" y="350" />
              <mxPoint x="250" y="350" />
            </Array>
          </mxGeometry>
        </mxCell>
        <mxCell id="-bVrx1bl4J-N6o7YZNYy-5" value="مسئول واحد" style="rounded=0;whiteSpace=wrap;html=1;fontSize=18;" vertex="1" parent="1">
          <mxGeometry x="165" y="230" width="120" height="60" as="geometry" />
        </mxCell>
        <mxCell id="-bVrx1bl4J-N6o7YZNYy-44" style="edgeStyle=orthogonalEdgeStyle;rounded=0;orthogonalLoop=1;jettySize=auto;html=1;entryX=0;entryY=0.5;entryDx=0;entryDy=0;fontSize=18;" edge="1" parent="1" source="-bVrx1bl4J-N6o7YZNYy-9" target="-bVrx1bl4J-N6o7YZNYy-41">
          <mxGeometry relative="1" as="geometry" />
        </mxCell>
        <mxCell id="-bVrx1bl4J-N6o7YZNYy-59" style="edgeStyle=orthogonalEdgeStyle;rounded=0;orthogonalLoop=1;jettySize=auto;html=1;entryX=0;entryY=0.75;entryDx=0;entryDy=0;fontSize=18;exitX=0.5;exitY=1;exitDx=0;exitDy=0;" edge="1" parent="1" source="-bVrx1bl4J-N6o7YZNYy-41" target="-bVrx1bl4J-N6o7YZNYy-5">
          <mxGeometry relative="1" as="geometry">
            <Array as="points">
              <mxPoint x="390" y="670" />
              <mxPoint x="100" y="670" />
              <mxPoint x="100" y="250" />
              <mxPoint x="160" y="250" />
              <mxPoint x="160" y="275" />
            </Array>
          </mxGeometry>
        </mxCell>
        <mxCell id="-bVrx1bl4J-N6o7YZNYy-60" value="خیر" style="edgeLabel;html=1;align=center;verticalAlign=middle;resizable=0;points=[];fontSize=18;" vertex="1" connectable="0" parent="-bVrx1bl4J-N6o7YZNYy-59">
          <mxGeometry x="-0.6438" y="1" relative="1" as="geometry">
            <mxPoint as="offset" />
          </mxGeometry>
        </mxCell>
        <mxCell id="-bVrx1bl4J-N6o7YZNYy-9" value="معاونت اداری و مالی" style="rounded=0;whiteSpace=wrap;html=1;fontSize=18;" vertex="1" parent="1">
          <mxGeometry x="190" y="560" width="120" height="60" as="geometry" />
        </mxCell>
        <mxCell id="-bVrx1bl4J-N6o7YZNYy-46" style="edgeStyle=orthogonalEdgeStyle;rounded=0;orthogonalLoop=1;jettySize=auto;html=1;entryX=0.5;entryY=1;entryDx=0;entryDy=0;fontSize=18;" edge="1" parent="1" source="-bVrx1bl4J-N6o7YZNYy-11" target="-bVrx1bl4J-N6o7YZNYy-42">
          <mxGeometry relative="1" as="geometry" />
        </mxCell>
        <mxCell id="-bVrx1bl4J-N6o7YZNYy-51" style="edgeStyle=orthogonalEdgeStyle;rounded=0;orthogonalLoop=1;jettySize=auto;html=1;entryX=0.5;entryY=0;entryDx=0;entryDy=0;fontSize=18;" edge="1" parent="1" source="-bVrx1bl4J-N6o7YZNYy-11" target="-bVrx1bl4J-N6o7YZNYy-19">
          <mxGeometry relative="1" as="geometry" />
        </mxCell>
        <mxCell id="-bVrx1bl4J-N6o7YZNYy-11" value="مسئول مالی" style="rounded=0;whiteSpace=wrap;html=1;fontSize=18;" vertex="1" parent="1">
          <mxGeometry x="470" y="560" width="120" height="60" as="geometry" />
        </mxCell>
        <mxCell id="-bVrx1bl4J-N6o7YZNYy-48" style="edgeStyle=orthogonalEdgeStyle;rounded=0;orthogonalLoop=1;jettySize=auto;html=1;entryX=0.5;entryY=1;entryDx=0;entryDy=0;fontSize=18;" edge="1" parent="1" source="-bVrx1bl4J-N6o7YZNYy-13" target="-bVrx1bl4J-N6o7YZNYy-43">
          <mxGeometry relative="1" as="geometry" />
        </mxCell>
        <mxCell id="-bVrx1bl4J-N6o7YZNYy-13" value="مسئول کارپردازی" style="rounded=0;whiteSpace=wrap;html=1;fontSize=18;" vertex="1" parent="1">
          <mxGeometry x="470" y="280" width="120" height="60" as="geometry" />
        </mxCell>
        <mxCell id="-bVrx1bl4J-N6o7YZNYy-50" style="edgeStyle=orthogonalEdgeStyle;rounded=0;orthogonalLoop=1;jettySize=auto;html=1;entryX=1;entryY=0.5;entryDx=0;entryDy=0;fontSize=18;" edge="1" parent="1" source="-bVrx1bl4J-N6o7YZNYy-15" target="-bVrx1bl4J-N6o7YZNYy-11">
          <mxGeometry relative="1" as="geometry">
            <Array as="points">
              <mxPoint x="730" y="590" />
            </Array>
          </mxGeometry>
        </mxCell>
        <mxCell id="-bVrx1bl4J-N6o7YZNYy-15" value="کارشناس اعتبارات" style="rounded=0;whiteSpace=wrap;html=1;fontSize=18;" vertex="1" parent="1">
          <mxGeometry x="660" y="130" width="120" height="60" as="geometry" />
        </mxCell>
        <mxCell id="-bVrx1bl4J-N6o7YZNYy-25" style="edgeStyle=orthogonalEdgeStyle;rounded=0;orthogonalLoop=1;jettySize=auto;html=1;fontSize=18;" edge="1" parent="1" source="-bVrx1bl4J-N6o7YZNYy-19" target="-bVrx1bl4J-N6o7YZNYy-24">
          <mxGeometry relative="1" as="geometry" />
        </mxCell>
        <mxCell id="-bVrx1bl4J-N6o7YZNYy-19" value="مدیریت" style="rounded=0;whiteSpace=wrap;html=1;fontSize=18;" vertex="1" parent="1">
          <mxGeometry x="470" y="690" width="120" height="60" as="geometry" />
        </mxCell>
        <mxCell id="-bVrx1bl4J-N6o7YZNYy-24" value="پایان" style="ellipse;whiteSpace=wrap;html=1;aspect=fixed;fontSize=18;" vertex="1" parent="1">
          <mxGeometry x="710" y="680" width="80" height="80" as="geometry" />
        </mxCell>
        <mxCell id="-bVrx1bl4J-N6o7YZNYy-40" value="بله" style="edgeStyle=orthogonalEdgeStyle;rounded=0;orthogonalLoop=1;jettySize=auto;html=1;entryX=0.5;entryY=0;entryDx=0;entryDy=0;fontSize=18;" edge="1" parent="1" source="-bVrx1bl4J-N6o7YZNYy-32" target="-bVrx1bl4J-N6o7YZNYy-9">
          <mxGeometry relative="1" as="geometry" />
        </mxCell>
        <mxCell id="-bVrx1bl4J-N6o7YZNYy-58" value="خیر" style="edgeStyle=orthogonalEdgeStyle;rounded=0;orthogonalLoop=1;jettySize=auto;html=1;fontSize=18;" edge="1" parent="1" source="-bVrx1bl4J-N6o7YZNYy-32">
          <mxGeometry relative="1" as="geometry">
            <mxPoint x="160" y="140" as="targetPoint" />
            <Array as="points">
              <mxPoint x="50" y="410" />
              <mxPoint x="50" y="140" />
            </Array>
          </mxGeometry>
        </mxCell>
        <mxCell id="-bVrx1bl4J-N6o7YZNYy-32" value="تایید" style="rhombus;whiteSpace=wrap;html=1;fontSize=18;" vertex="1" parent="1">
          <mxGeometry x="210" y="370" width="80" height="80" as="geometry" />
        </mxCell>
        <mxCell id="-bVrx1bl4J-N6o7YZNYy-45" style="edgeStyle=orthogonalEdgeStyle;rounded=0;orthogonalLoop=1;jettySize=auto;html=1;entryX=0;entryY=0.5;entryDx=0;entryDy=0;fontSize=18;" edge="1" parent="1" source="-bVrx1bl4J-N6o7YZNYy-41" target="-bVrx1bl4J-N6o7YZNYy-11">
          <mxGeometry relative="1" as="geometry" />
        </mxCell>
        <mxCell id="-bVrx1bl4J-N6o7YZNYy-41" value="تایید" style="rhombus;whiteSpace=wrap;html=1;fontSize=18;" vertex="1" parent="1">
          <mxGeometry x="350" y="550" width="80" height="80" as="geometry" />
        </mxCell>
        <mxCell id="-bVrx1bl4J-N6o7YZNYy-47" style="edgeStyle=orthogonalEdgeStyle;rounded=0;orthogonalLoop=1;jettySize=auto;html=1;entryX=0.5;entryY=1;entryDx=0;entryDy=0;fontSize=18;" edge="1" parent="1" source="-bVrx1bl4J-N6o7YZNYy-42" target="-bVrx1bl4J-N6o7YZNYy-13">
          <mxGeometry relative="1" as="geometry" />
        </mxCell>
        <mxCell id="-bVrx1bl4J-N6o7YZNYy-65" value="عدم تایید" style="edgeStyle=orthogonalEdgeStyle;rounded=0;orthogonalLoop=1;jettySize=auto;html=1;entryX=0.75;entryY=0;entryDx=0;entryDy=0;fontSize=18;" edge="1" parent="1" source="-bVrx1bl4J-N6o7YZNYy-42" target="-bVrx1bl4J-N6o7YZNYy-9">
          <mxGeometry relative="1" as="geometry" />
        </mxCell>
        <mxCell id="-bVrx1bl4J-N6o7YZNYy-42" value="تایید" style="rhombus;whiteSpace=wrap;html=1;fontSize=18;" vertex="1" parent="1">
          <mxGeometry x="490" y="420" width="80" height="80" as="geometry" />
        </mxCell>
        <mxCell id="-bVrx1bl4J-N6o7YZNYy-49" style="edgeStyle=orthogonalEdgeStyle;rounded=0;orthogonalLoop=1;jettySize=auto;html=1;entryX=0;entryY=0.5;entryDx=0;entryDy=0;fontSize=18;" edge="1" parent="1" source="-bVrx1bl4J-N6o7YZNYy-43" target="-bVrx1bl4J-N6o7YZNYy-15">
          <mxGeometry relative="1" as="geometry" />
        </mxCell>
        <mxCell id="-bVrx1bl4J-N6o7YZNYy-43" value="تایید" style="rhombus;whiteSpace=wrap;html=1;fontSize=18;" vertex="1" parent="1">
          <mxGeometry x="490" y="120" width="80" height="80" as="geometry" />
        </mxCell>
      </root>
    </mxGraphModel>
  </diagram>
</mxfile>
